<?xml version="1.0" encoding="UTF-8" standalone="no"?>
<!-- Created with Vectornator (http://vectornator.io/) -->

<svg
   height="35.779259cm"
   stroke-miterlimit="10"
   style="clip-rule:evenodd;fill-rule:nonzero;stroke-linecap:round;stroke-linejoin:round"
   version="1.1"
   viewBox="0 0 2855.6359 1352.286"
   width="75.555367cm"
   xml:space="preserve"
   id="svg556"
   sodipodi:docname="favicon.svg"
   inkscape:export-filename="images/logo.svg"
   inkscape:export-xdpi="10.09"
   inkscape:export-ydpi="10.09"
   xmlns:inkscape="http://www.inkscape.org/namespaces/inkscape"
   xmlns:sodipodi="http://sodipodi.sourceforge.net/DTD/sodipodi-0.dtd"
   xmlns="http://www.w3.org/2000/svg"
   xmlns:svg="http://www.w3.org/2000/svg"
   xmlns:vectornator="http://vectornator.io"><sodipodi:namedview
   id="namedview558"
   pagecolor="#505050"
   bordercolor="#ffffff"
   borderopacity="1"
   inkscape:showpageshadow="0"
   inkscape:pageopacity="0"
   inkscape:pagecheckerboard="1"
   inkscape:deskcolor="#505050"
   showgrid="false"
   inkscape:document-units="cm" />
<defs
   id="defs518" />

<g
   id="g700"
   transform="translate(-83.425071,-146.8761)"><g
     id="Layer-2"
     vectornator:layerName="Layer 2"
     transform="translate(-174.16319,-298.08699)">
<g
   opacity="1"
   vectornator:layerName="Group 1"
   id="g531">
<path
   d="m 653.331,465.733 c 0,0 30.549,-13.879 47.659,-8.973 17.111,4.906 20.782,28.598 20.782,28.598 l 0.842,125.96 c 0,0 1.922,20.251 -11.006,34.974 -12.927,14.723 -37.519,23.918 -37.519,23.918 0,0 -213.332,86.969 -218.983,293.672 -7.96,291.208 233.026,365.938 233.026,365.938 0,0 18.123,3.82 26.482,15.52 8.359,11.71 6.955,31.3 6.955,31.3 l -1.107,109.96 c 0,0 1.996,27.63 -9.77,40.33 -11.766,12.71 -37.293,10.5 -37.293,10.5 0,0 -343.933,-73.42 -410.5,-458.87 -9.204,-53.3 -3.982,-101.035 -2.413,-127.124 23.651,-393.254 392.845,-485.703 392.845,-485.703 z"
   fill="#66b88c"
   fill-rule="nonzero"
   opacity="1"
   stroke="none"
   vectornator:layerName="Curve 1"
   id="path523" />
<path
   d="m 1517.48,454.987 c 0,0 30.55,-13.88 47.66,-8.974 17.11,4.906 20.79,28.598 20.79,28.598 l 0.84,125.96 c 0,0 1.92,20.251 -11.01,34.974 -12.93,14.723 -37.52,23.918 -37.52,23.918 0,0 -213.33,86.97 -218.98,293.672 -7.96,291.205 233.02,365.935 233.02,365.935 0,0 18.13,3.82 26.49,15.53 8.36,11.7 6.95,31.29 6.95,31.29 l -1.1,109.96 c 0,0 1.99,27.63 -9.77,40.34 -11.77,12.71 -37.3,10.49 -37.3,10.49 0,0 -343.93,-73.42 -410.5,-458.87 -9.2,-53.29 -3.98,-101.031 -2.41,-127.121 23.65,-393.253 392.84,-485.702 392.84,-485.702 z"
   fill="#08b4e5"
   fill-rule="nonzero"
   opacity="1"
   stroke="none"
   vectornator:layerName="Curve 6"
   id="path525" />
<path
   d="m 841.052,487.502 c 0,0 1.926,-21.37 12.766,-31.792 10.84,-10.422 30.594,-9.894 30.594,-9.894 0,0 55.009,11.087 103.284,27.638 48.274,16.552 89.814,38.568 89.814,38.568 0,0 62.51,36.954 38.46,120.636 -23.06,80.29 -86.03,69.134 -100.71,68.509 -17.585,-0.748 -45.885,-17.141 -82.145,-29.448 C 903.242,661.581 861.918,658.962 849.099,646.825 836.28,634.687 838.32,607.681 838.32,607.681 Z"
   fill="#f1d244"
   fill-rule="nonzero"
   opacity="1"
   stroke="none"
   vectornator:layerName="Curve 2"
   id="path527" />
<path
   d="m 838.201,1403.32 c 0,0 -0.259,-27.56 8.731,-42.32 8.99,-14.77 25.976,-20.94 25.976,-20.94 0,0 27.745,-9.96 58.259,-20.92 30.514,-10.96 63.798,-22.92 63.798,-22.92 0,0 93.705,-19.94 119.245,59.04 31.05,96.04 -43.91,132.58 -43.91,132.58 0,0 -43.93,26.45 -90.46,41.21 -46.526,14.77 -95.645,17.85 -95.645,17.85 0,0 -25.26,0.06 -36.562,-9.32 -11.301,-9.39 -9.432,-33.99 -9.432,-33.99 z"
   fill="#f65349"
   fill-rule="nonzero"
   opacity="1"
   stroke="none"
   vectornator:layerName="Curve 3"
   id="path529" />
</g>
<g
   opacity="1"
   vectornator:layerName="Group 2"
   id="g539">
<path
   d="m 2644.82,466.304 c 0,0 30.55,-13.88 47.66,-8.974 17.11,4.907 20.78,28.599 20.78,28.599 l 0.84,125.959 c 0,0 1.92,20.251 -11.01,34.974 -12.92,14.723 -37.52,23.919 -37.52,23.919 0,0 -213.33,86.969 -218.98,293.672 -7.96,291.207 233.03,365.937 233.03,365.937 0,0 18.12,3.82 26.48,15.52 8.36,11.71 6.95,31.3 6.95,31.3 l -1.1,109.96 c 0,0 1.99,27.63 -9.77,40.34 -11.77,12.7 -37.3,10.49 -37.3,10.49 0,0 -343.93,-73.42 -410.5,-458.87 -9.2,-53.3 -3.98,-101.034 -2.41,-127.124 23.65,-393.253 392.85,-485.702 392.85,-485.702 z"
   fill="#66b88c"
   fill-rule="nonzero"
   opacity="1"
   stroke="none"
   vectornator:layerName="Curve 1"
   id="path533" />
<path
   d="m 2832.54,488.072 c 0,0 1.92,-21.37 12.76,-31.792 10.84,-10.421 30.6,-9.894 30.6,-9.894 0,0 55.01,11.087 103.28,27.639 48.28,16.551 89.81,38.567 89.81,38.567 0,0 62.51,36.954 38.47,120.636 -23.07,80.291 -86.03,69.134 -100.72,68.51 -17.58,-0.749 -45.88,-17.142 -82.14,-29.448 -29.87,-10.139 -71.2,-12.757 -84.02,-24.895 -12.81,-12.138 -10.78,-39.144 -10.78,-39.144 z"
   fill="#f1d244"
   fill-rule="nonzero"
   opacity="1"
   stroke="none"
   vectornator:layerName="Curve 2"
   id="path535" />
<path
   d="m 2829.69,1403.89 c 0,0 -0.26,-27.56 8.73,-42.32 8.99,-14.77 25.97,-20.94 25.97,-20.94 0,0 27.75,-9.96 58.26,-20.92 30.52,-10.96 63.8,-22.91 63.8,-22.91 0,0 93.71,-19.95 119.24,59.03 31.05,96.04 -43.91,132.58 -43.91,132.58 0,0 -43.93,26.45 -90.46,41.21 -46.52,14.77 -95.64,17.85 -95.64,17.85 0,0 -25.26,0.06 -36.56,-9.32 -11.3,-9.39 -9.43,-33.99 -9.43,-33.99 z"
   fill="#f65349"
   fill-rule="nonzero"
   opacity="1"
   stroke="none"
   vectornator:layerName="Curve 3"
   id="path537" />
</g>
<path
   d="m 1723.17,501.696 c 0,0 -1.72,-31.919 9.68,-45.986 11.39,-14.067 35.9,-10.284 35.9,-10.284 0,0 81.36,9.795 159.45,51.546 78.09,41.751 152.91,115.459 152.91,115.459 0,0 49.11,60.072 -2.56,122.869 -61.46,74.7 -133.49,22.776 -133.49,22.776 0,0 -38.54,-38.22 -82.2,-63.309 -43.65,-25.09 -81.58,-32.045 -81.58,-32.045 0,0 -34.03,-3.386 -45.91,-14.383 -11.88,-10.997 -12.44,-34.607 -12.44,-34.607 z"
   fill="#08b4e5"
   fill-rule="nonzero"
   opacity="1"
   stroke="none"
   vectornator:layerName="Curve 4"
   id="path541" />
<path
   d="m 1829.74,944.603 c 0,0 -82.03,22.542 -76.07,106.927 6.89,97.68 87.98,105.26 87.98,105.26 l 98.39,-8.96 c 0,0 26.43,-3.55 36.03,5.37 9.6,8.92 2.37,30.3 2.37,30.3 0,0 -30.68,56.57 -81.25,94.84 -50.57,38.27 -121.25,55.58 -121.25,55.58 0,0 -31.3,3.07 -42.85,14.35 -11.55,11.28 -10.16,35.3 -10.16,35.3 v 121.61 c 0,0 1.41,19.04 16.66,32.4 15.26,13.35 51.62,9.32 51.62,9.32 0,0 103.16,-20.49 188.48,-76.47 85.31,-55.99 152.78,-147.47 152.78,-147.47 0,0 51.34,-73.75 75.57,-146.93 24.23,-73.17 21.35,-145.78 21.35,-145.78 0,0 -4.14,-41.076 -26.3,-62.784 -22.15,-21.707 -62.32,-24.041 -62.32,-24.041 z"
   fill="#f65349"
   fill-rule="nonzero"
   opacity="1"
   stroke="none"
   vectornator:layerName="Curve 5"
   id="path543" />
<g
   fill="#000000"
   opacity="1"
   stroke="none"
   vectornator:layerName="Text 1"
   id="g553"
   transform="translate(0,-74)">
<path
   d="m 1477.75,1797.22 -25.59,-74.49 -27.21,74.49 z m -37.53,-99.52 h 25.82 l 61.18,168.62 h -25.02 l -17.1,-50.51 h -66.69 l -18.25,50.51 h -23.42 z"
   id="path545" />
<path
   d="m 1550.18,1697.7 h 75.87 c 15,0 27.09,4.23 36.27,12.69 9.18,8.45 13.77,20.33 13.77,35.64 0,13.16 -4.09,24.62 -12.28,34.37 -8.19,9.76 -20.77,14.64 -37.76,14.64 h -53.03 v 71.28 h -22.84 z m 102.84,48.44 c 0,-12.4 -4.59,-20.81 -13.77,-25.25 -5.05,-2.37 -11.98,-3.56 -20.78,-3.56 h -45.45 v 58.42 h 45.45 c 10.26,0 18.58,-2.18 24.97,-6.54 6.39,-4.36 9.58,-12.05 9.58,-23.07 z"
   id="path547" />
<path
   d="m 1706.97,1697.7 h 75.87 c 15,0 27.09,4.23 36.27,12.69 9.18,8.45 13.77,20.33 13.77,35.64 0,13.16 -4.09,24.62 -12.28,34.37 -8.19,9.76 -20.77,14.64 -37.76,14.64 h -53.03 v 71.28 h -22.84 z m 102.84,48.44 c 0,-12.4 -4.59,-20.81 -13.77,-25.25 -5.05,-2.37 -11.98,-3.56 -20.78,-3.56 h -45.45 v 58.42 h 45.45 c 10.26,0 18.58,-2.18 24.97,-6.54 6.39,-4.36 9.58,-12.05 9.58,-23.07 z"
   id="path549" />
<path
   d="m 1876.5,1811.91 c 0.54,9.57 2.79,17.33 6.77,23.3 7.58,11.17 20.93,16.76 40.06,16.76 8.57,0 16.38,-1.23 23.42,-3.67 13.62,-4.75 20.43,-13.24 20.43,-25.49 0,-9.18 -2.87,-15.72 -8.61,-19.62 -5.82,-3.83 -14.92,-7.16 -27.32,-9.99 l -22.84,-5.16 c -14.92,-3.37 -25.48,-7.08 -31.68,-11.14 -10.71,-7.04 -16.07,-17.56 -16.07,-31.56 0,-15.15 5.24,-27.59 15.72,-37.31 10.49,-9.71 25.33,-14.57 44.54,-14.57 17.68,0 32.69,4.26 45.05,12.79 12.36,8.54 18.54,22.18 18.54,40.92 h -21.47 c -1.14,-9.03 -3.59,-15.95 -7.34,-20.77 -6.96,-8.8 -18.79,-13.2 -35.47,-13.2 -13.47,0 -23.15,2.83 -29.04,8.49 -5.89,5.67 -8.84,12.25 -8.84,19.74 0,8.27 3.45,14.31 10.33,18.14 4.52,2.45 14.73,5.51 30.65,9.18 l 23.65,5.4 c 11.4,2.6 20.2,6.16 26.39,10.67 10.72,7.88 16.07,19.32 16.07,34.32 0,18.67 -6.79,32.03 -20.37,40.06 -13.58,8.03 -29.36,12.05 -47.35,12.05 -20.96,0 -37.38,-5.35 -49.24,-16.07 -11.86,-10.63 -17.67,-25.06 -17.44,-43.27 z"
   id="path551" />
</g>
</g></g>
</svg>
